<svg viewBox="0 0 1024 1024" class="icon" xmlns="http://www.w3.org/2000/svg">
    <path d="M768 85.3H554.7c0 23.5-19.2 42.7-42.7 42.7s-42.7-19.2-42.7-42.7H256C209.1 85.3 170.7 123.7 170.7 170.7v682.7c0 46.9 38.4 85.3 85.3 85.3h512c46.9 0 85.3-38.4 85.3-85.3V170.7c0-46.9-38.4-85.4-85.3-85.4z" fill="#455A64"/>
    <path d="M768 874.7H256c-12.8 0-21.3-8.5-21.3-21.3V170.7c0-12.8 8.5-21.3 21.3-21.3h512c12.8 0 21.3-8.5 21.3-21.3v682.7c0 12.8-8.5 21.3-21.3 21.3z" fill="#FFF"/>
    <path d="M554.7 85.3c0 23.5-19.2 42.7-42.7 42.7s-42.7-19.2-42.7-42.7h-149.3v85.3c0 23.5 19.2 42.7 42.7 42.7h298.7c23.5 0 42.7-19.2 42.7-42.7V85.3h-149.4z" fill="#90A4AE"/>
    <path d="M512 0c-46.9 0-85.3 38.4-85.3 85.3s38.4 85.3 85.3 85.3 85.3-38.4 85.3-85.3S558.9 0 512 0zm0 128c-23.5 0-42.7-19.2-42.7-42.7S488.5 42.7 512 42.7 554.7 61.9 554.7 85.3 535.5 128 512 128z" fill="#90A4AE"/>
    <path d="M652.8 396.8l-192 192-89.6-91.7-53.3 53.3 145.1 142.9 243.2-243.2z" fill="#4CAF50"/>
</svg>
